<svg fill="none" height="24" viewBox="0 0 24 24" width="24" xmlns="http://www.w3.org/2000/svg"><g fill="#1b9f80"><path d="m5.6264 20.7433c.0001.0681.02721.1334.0754.1815.04818.0481.1135.0752.1816.0752h11.7612c.0681 0 .1334-.0271.1816-.0752.0481-.0481.0753-.1134.0754-.1815v-1.0979h-12.2752z"/><path d="m17.9016 6.57996c-.0005-.06821-.0278-.13351-.076-.18176l-3.3117-3.32367c-.0237-.02373-.0519-.04254-.0829-.05533s-.0643-.01932-.0978-.0192h-8.4498c-.0681 0-.13342.02703-.1816.07515-.04819.04812-.0753.11339-.0754.18149v7.65946h12.2752z"/><path d="m6.99203 13.8791h-.47988v.495.4967c.17964 0 .36351-.0017.47742-.0017.27914 0 .51504-.2268.51504-.495 0-.2683-.23344-.495-.51258-.495z"/><path d="m19.0117 11.9708h-14.48436c-.13986 0-.27399.0555-.37288.1544-.0989.0989-.15446.233-.15446.3729v5.5652c0 .1399.05556.274.15446.3729.09889.0989.23302.1545.37288.1545h14.48436c.1399 0 .274-.0556.3729-.1545s.1545-.233.1545-.3729v-5.5652c0-.1399-.0556-.274-.1545-.3729s-.233-.1544-.3729-.1544zm-12.01955 3.9529c-.11285 0-.29988 0-.48164.0018v1.0491c0 .1398-.05556.2739-.15446.3728-.09889.0989-.23303.1545-.37289.1545s-.27399-.0556-.37288-.1545c-.0989-.0989-.15446-.233-.15446-.3728v-3.6211c0-.0067 0-.0127 0-.0194s0-.0218.00176-.0327.00281-.0218.00457-.0327.00176-.0123.00281-.0182c.00281-.0134.00598-.0261.00984-.0387 0-.0039.00176-.0078.00282-.0113.00386-.0133.00879-.0263.01371-.0393.00132-.003.0025-.0061.00351-.0092.00528-.0126.0109-.0246.01723-.0351.00176-.0032.00316-.0071.00492-.0102.00598-.0113.01231-.0215.01899-.032.00246-.0042.00492-.0085.00773-.0127s.01336-.0186.02039-.0278c.00703-.0091.00668-.0095.0102-.0137.00808-.0098.01687-.019.02531-.0281l.00914-.0098c.01195-.0123.02496-.0236.03797-.0352l.00738-.0053c.0109-.0088.0225-.0175.03516-.0253l.00738-.0046c.01231-.0077.02426-.0154.03727-.0221l.00457-.0025c.01371-.007.02777-.0137.04218-.0196h.00211c.01512-.006.03059-.0116.04641-.0166h.00246c.01547-.0045.03129-.0088.04746-.0119h.01055c.01336-.0025.02672-.0049.04043-.0064.01371-.0014.03515-.0024.05273-.0024h1.00899c.86554 0 1.56972.695 1.56972 1.5497 0 .8546-.70383 1.5433-1.56937 1.5433zm5.51395 1.5118c-.2423.0755-.4968-.0173-.649-.237l-1.484-2.1488v1.9249c0 .1398-.0555.2739-.1544.3728s-.23306.1545-.37292.1545-.27399-.0556-.37289-.1545c-.09889-.0989-.15445-.233-.15445-.3728v-3.6162c-.00005-.1125.03588-.2221.10254-.3127.06665-.0906.16055-.1576.26796-.191.10741-.0335.2227-.0317.32906.005.1063.0367.1981.1065.262.1991l1.5623 2.2627-.019-1.9649c-.0006-.0692.0124-.1379.0383-.2022.0259-.0642.0642-.1227.1127-.1721s.1063-.0888.17-.1159.1322-.0414.2014-.042h.0053c.139 0 .2723.0548.3711.1525.0987.0978.1549.2306.1563.3695l.0351 3.5009v.0042c-.0014.2784-.1596.5073-.4057.5843zm3.4748.066c-.3657.0001-.7264-.0855-1.053-.2501s-.6101-.4034-.8277-.6974c-.2175-.294-.3631-.6349-.4251-.9953-.0619-.3605-.0384-.7304.0685-1.0801.107-.3498.2945-.6696.5474-.9337.253-.2641.5643-.4653.9091-.5873s.7134-.1614 1.0762-.1151c.3628.0462.7096.1769 1.0128.3816.0573.0388.1065.0885.1447.1463.0382.0577.0646.1225.0778.1905.0131.068.0128.1379-.0011.2058-.0139.0678-.041.1323-.0798.1897-.0387.0574-.0884.1066-.1462.1447-.0578.0382-.1226.0646-.1906.0778s-.1379.0128-.2058-.0011c-.0678-.0139-.1323-.041-.1897-.0797-.1664-.1123-.3569-.1839-.5561-.2092s-.4015-.0035-.5907.0636c-.1893.067-.3602.1775-.499.3226s-.2416.3207-.3003.5127c-.0586.192-.0714.3951-.0374.593.0341.1978.114.385.2335.5463.1195.1614.2751.2925.4544.3828s.3773.1374.5781.1373c.5453 0 .8399-.3378.9643-.7569h-.4844c-.1399 0-.274-.0556-.3729-.1545s-.1545-.233-.1545-.3728c0-.1399.0556-.274.1545-.3729s.233-.1545.3729-.1545h1.0838c.1399 0 .274.0556.3729.1545s.1545.233.1545.3729c0 1.377-.8599 2.3389-2.0911 2.3389z"/></g></svg>