<svg fill="none" height="24" viewBox="0 0 24 24" width="24" xmlns="http://www.w3.org/2000/svg"><g fill="#00733b"><path d="m17.9016 6.57996c-.0005-.06821-.0278-.13351-.076-.18176l-3.3117-3.32367c-.0237-.02373-.0519-.04254-.0829-.05533s-.0643-.01932-.0978-.0192h-8.4498c-.0681 0-.13342.02703-.1816.07515-.04819.04812-.0753.11339-.0754.18149v7.65946h12.2752z"/><path d="m19.0117 11.9708h-14.48436c-.13986 0-.27399.0555-.37288.1544-.0989.0989-.15446.233-.15446.3729v5.5652c0 .1399.05556.274.15446.3729.09889.0989.23302.1545.37288.1545h14.48436c.1399 0 .274-.0556.3729-.1545s.1545-.233.1545-.3729v-5.5652c0-.1399-.0556-.274-.1545-.3729s-.233-.1544-.3729-.1544zm-9.13252 5.4351c-.05665.0399-.12059.0682-.18817.0833-.06759.0151-.13749.0168-.20572.0049s-.13345-.0371-.19194-.0742c-.05849-.037-.1091-.0853-.14894-.1419l-.93375-1.3275-.93515 1.3278c-.08056.1144-.20325.192-.34108.2159s-.2795-.0079-.39386-.0885c-.11436-.0805-.19204-.2032-.21594-.341-.0239-.1379.00794-.2795.08849-.3939l1.15313-1.6365-.97031-1.3792c-.08047-.1144-.11219-.2561-.08819-.3939s.10175-.2604.21616-.3409c.1144-.0804.25609-.1122.39388-.0882.1378.024.26042.1018.34088.2162l.7527 1.0702.7541-1.0705c.03945-.0577.08997-.1069.14862-.1449.05864-.038.12425-.0639.193-.0763.06876-.0124.13929-.011.20751.0041.06821.0151.13275.0436.18985.0838.05711.0402.10565.0914.14281.1506.03715.0592.06218.1251.07363.194.01145.069.00909.1395-.00695.2075-.01603.068-.04541.1321-.08644.1887l-.97172 1.3791 1.15132 1.6366c.0399.0566.0682.1205.0833.1881.0152.0676.0168.1375.005.2057-.0119.0683-.0371.1335-.0742.192-.03712.0585-.08537.1091-.14202.1489zm2.64342.0928c-.3822.0025-.6444.0035-.8262.0035-.3846 0-.4099-.0045-.45-.0119-.1213-.0224-.2309-.0865-.3098-.1813-.0788-.0948-.122-.2143-.1219-.3376v-3.6211c0-.1399.0555-.274.1544-.3729s.2331-.1544.3729-.1544c.1399 0 .274.0555.3729.1544s.1545.233.1545.3729v3.0937c.1968 0 .4278 0 .6468-.0028h.0032c.1399-.0004.2742.0548.3734.1534s.1551.2325.1555.3724c.0005.1399-.0547.2742-.1533.3733-.0986.0992-.2326.1552-.3724.1556zm4.6687-1.2167c-.1262.707-.798 1.2199-1.5978 1.2199-.6416 0-1.2442-.2588-1.6524-.7102-.0939-.1036-.1428-.2403-.136-.38.0069-.1397.069-.271.1726-.3649.1036-.094.2403-.1429.38-.136.1398.0068.271.0689.365.1725.2067.2279.5326.3639.8718.3639.3069 0 .5295-.1817.5597-.3516.039-.2197-.3164-.3694-.4275-.4102-.5625-.2082-1.0652-.431-1.0863-.4405-.0254-.0112-.0499-.0245-.0731-.0398-.1984-.1277-.3556-.3101-.4528-.525-.0971-.215-.1301-.4535-.095-.6868.0735-.5129.4472-.9306.9756-1.0898 1.028-.3094 1.8728.3867 1.9083.4169l-.6789.8086.0035.0032c-.0042-.0035-.4528-.3607-.9288-.2173-.1912.0577-.2288.1797-.2359.2296-.0053.0293-.003.0595.0066.0877.0096.0283.0262.0536.0483.0736.1371.0598.5403.2331.9724.3924.9573.3519 1.1964 1.049 1.1007 1.5838z"/><path d="m5.6264 20.7433c.0001.0681.02721.1334.0754.1815.04818.0481.1135.0752.1816.0752h11.7612c.0681 0 .1334-.0271.1816-.0752.0481-.0481.0753-.1134.0754-.1815v-1.0979h-12.2752z"/></g></svg>