<svg fill="none" height="24" viewBox="0 0 24 24" width="24" xmlns="http://www.w3.org/2000/svg"><g fill="#0263d1"><path d="m6.46572 13.8791h-.40536v1.28c0 .2915 0 .8614.00246 1.285.16032 0 .31993-.0028.41836-.0046.54211-.0098.78821-.669.78821-1.2755 0-.2151-.03867-1.2849-.80367-1.2849z"/><path d="m17.9016 6.57996c-.0005-.06821-.0278-.13351-.076-.18176l-3.3117-3.32367c-.0237-.02373-.0519-.04254-.0829-.05533s-.0643-.01932-.0978-.0192h-8.4498c-.0681 0-.13342.02703-.1816.07515-.04819.04812-.0753.11339-.0754.18149v7.65946h12.2752z"/><path d="m5.6264 20.7433c.0001.0681.02721.1334.0754.1815.04818.0481.1135.0752.1816.0752h11.7612c.0681 0 .1334-.0271.1816-.0752.0481-.0481.0753-.1134.0754-.1815v-1.0979h-12.2752z"/><path d="m11.4197 13.8791c-.254 0-.5022.0753-.7134.2164s-.3758.3416-.473.5762c-.0973.2346-.1227.4928-.0732.7419s.1717.478.3512.6576c.1796.1796.4083.302.6574.3516.2491.0497.5073.0243.742-.0728.2347-.097.4353-.2615.5765-.4726s.2166-.4594.2168-.7134c-.0002-.3406-.1356-.6672-.3764-.9081-.2407-.2409-.5673-.3764-.9079-.3768z"/><path d="m19.0117 11.9708h-14.48436c-.13986 0-.27399.0555-.37288.1544-.0989.0989-.15446.233-.15446.3729v5.5652c0 .1399.05556.274.15446.3729.09889.0989.23302.1545.37288.1545h14.48436c.1399 0 .274-.0556.3729-.1545s.1545-.233.1545-.3729v-5.5652c0-.1399-.0556-.274-.1545-.3729s-.233-.1544-.3729-.1544zm-11.13432 4.7643c-.33363.4785-.8216.7492-1.3739.7587-.26719.0053-.93375.0081-.96223.0081h-.00211c-.13956 0-.27342-.0553-.37227-.1538-.09884-.0986-.15461-.2322-.15507-.3718 0-.013-.00422-1.3191-.00422-1.8172 0-.4131-.00246-1.8063-.00246-1.8067 0-.1399.05556-.274.15445-.3729.0989-.0989.23303-.1544.37289-.1544h.9334c1.11164 0 1.85836.9397 1.85836 2.3386 0 .5997-.15856 1.158-.44684 1.5714zm3.54232.7668c-.4626 0-.9149-.1372-1.2995-.3943-.38469-.257-.68448-.6224-.86148-1.0498-.177-.4275-.22325-.8978-.13292-1.3515.09033-.4538.3132-.8705.64041-1.1976.32719-.3271.74409-.5498 1.19789-.6399.4537-.0901.9241-.0436 1.3514.1336.4274.1771.7926.4771 1.0495.8619.2569.3847.3939.8371.3937 1.2997-.0011.6199-.2478 1.2141-.6863 1.6524-.4384.4382-1.0328.6848-1.6527.6855zm6.9796-.6996c-.0616.0735-.1285.1425-.2.2064-.3625.3227-.8276.4921-1.3451.4921-.3657.0001-.7263-.0857-1.0528-.2503-.3266-.1646-.61-.4034-.8275-.6974-.2175-.2939-.3631-.6348-.425-.9952s-.0384-.7303.0685-1.08c.107-.3497.2944-.6694.5473-.9336.2529-.2641.5642-.4652.9089-.5873.3447-.122.7133-.1615 1.076-.1153s.7096.1768 1.0127.3813c.1161.0785.1962.1999.2227.3375.0266.1376-.0026.28-.0812.3961-.0785.116-.1999.1961-.3374.2226-.1376.0266-.2801-.0026-.3961-.0811-.1665-.1123-.3569-.1839-.5561-.2092s-.4015-.0035-.5908.0636c-.1892.067-.3601.1775-.4989.3226s-.2417.3207-.3003.5127c-.0587.192-.0715.3951-.0374.593.034.1978.114.385.2335.5463.1194.1614.2751.2925.4544.3828s.3773.1374.5781.1373c.2584 0 .4749-.0759.6433-.226.0337-.03.0651-.0625.0939-.0971.0445-.0531.0991-.0969.1605-.1289.0615-.032.1287-.0516.1977-.0576.069-.0061.1386.0015.2046.0223.0661.0208.1275.0545.1806.099s.0969.0991.1289.1605c.032.0615.0516.1287.0576.1977.0061.069-.0015.1386-.0223.2047s-.0545.1274-.099.1805z"/></g></svg>