<svg fill="none" height="24" viewBox="0 0 24 24" width="24" xmlns="http://www.w3.org/2000/svg"><g fill="#251d36"><path d="m17.9016 6.57996c-.0005-.06821-.0278-.13351-.076-.18176l-3.3117-3.32367c-.0237-.02373-.0519-.04254-.0829-.05533s-.0643-.01932-.0978-.0192h-8.4498c-.0681 0-.13342.02703-.1816.07515-.04819.04812-.0753.11339-.0754.18149v7.65946h12.2752z"/><path d="m5.6264 20.7433c.0001.0681.02721.1334.0754.1815.04818.0481.1135.0752.1816.0752h11.7612c.0681 0 .1334-.0271.1816-.0752.0481-.0481.0753-.1134.0754-.1815v-1.0979h-12.2752z"/><path d="m19.0117 11.9708h-14.48436c-.13986 0-.27399.0555-.37288.1544-.0989.0989-.15446.233-.15446.3729v5.5652c0 .1399.05556.274.15446.3729.09889.0989.23302.1545.37288.1545h14.48436c.1399 0 .274-.0556.3729-.1545s.1545-.233.1545-.3729v-5.5652c0-.1399-.0556-.274-.1545-.3729s-.233-.1544-.3729-.1544zm-10.25541 1.9082h-.47707v3.0956c0 .1398-.05556.2739-.15446.3728-.09889.0989-.23303.1545-.37289.1545s-.27399-.0556-.37288-.1545c-.0989-.0989-.15446-.233-.15446-.3728v-3.0956h-.46898c-.13986 0-.274-.0555-.37289-.1544-.0989-.0989-.15446-.233-.15446-.3729s.05556-.274.15446-.3729c.09889-.0989.23303-.1544.37289-.1544h2.00074c.13986 0 .27399.0555.37289.1544.09889.0989.15445.233.15445.3729s-.05556.274-.15445.3729c-.0989.0989-.23303.1544-.37289.1544zm4.69551 3.5269c-.0567.0399-.1206.0682-.1882.0833s-.1375.0168-.2057.0049c-.0683-.0119-.1335-.0371-.192-.0742-.0585-.037-.1091-.0853-.1489-.1419l-.9338-1.3275-.9355 1.3278c-.0814.1122-.2037.1878-.3404.2105s-.2769-.0093-.3902-.0891c-.1133-.0799-.19057-.2011-.21517-.3375-.02459-.1364.0055-.277.08377-.3914l1.1528-1.6365-.9703-1.3792c-.0805-.1145-.1122-.2562-.0882-.394.0241-.1378.1019-.2605.2163-.3409.1145-.0805.2562-.1122.394-.0882.1378.0241.2605.1019.3409.2163l.7527 1.0702.7541-1.0705c.0806-.1144.2033-.1921.3411-.216.1379-.0239.2795.008.3939.0885.1143.0806.192.2033.2159.3411s-.0079.2795-.0885.3939l-.9717 1.3791 1.1514 1.6366c.0398.0566.0681.1206.0832.1882s.0167.1375.0048.2057c-.0119.0683-.0371.1335-.0743.1919-.0371.0585-.0854.1091-.142.1489zm3.3205-3.5269h-.4771v3.0956c0 .1398-.0556.2739-.1545.3728s-.233.1545-.3728.1545c-.1399 0-.274-.0556-.3729-.1545s-.1545-.233-.1545-.3728v-3.0956h-.469c-.1398 0-.274-.0555-.3729-.1544s-.1544-.233-.1544-.3729.0555-.274.1544-.3729.2331-.1544.3729-.1544h2.0008c.1398 0 .274.0555.3729.1544.0988.0989.1544.233.1544.3729s-.0556.274-.1544.3729c-.0989.0989-.2331.1544-.3729.1544z"/></g></svg>