<svg fill="none" height="24" viewBox="0 0 24 24" width="24" xmlns="http://www.w3.org/2000/svg"><g fill="#e5252a"><path d="m17.9016 6.57996c-.0005-.06821-.0278-.13351-.076-.18176l-3.3117-3.32367c-.0237-.02373-.0519-.04254-.0829-.05533s-.0643-.01932-.0978-.0192h-8.4498c-.0681 0-.13342.02703-.1816.07515-.04819.04812-.0753.11339-.0754.18149v7.65946h12.2752z"/><path d="m7.87203 13.8791h-.47988v.495.4967c.17965 0 .36352-.0017.47742-.0017.27914 0 .51504-.2268.51504-.495 0-.2683-.23344-.495-.51258-.495z"/><path d="m11.7404 13.8791h-.4982c0 .4401.0017 1.0339.0017 1.28 0 .2918.0018.8617.0029 1.2853.1937 0 .3944-.0028.5139-.0049.6329-.0112.9141-.649.9141-1.2765.0014-.3009-.0661-1.2839-.9344-1.2839z"/><path d="m19.0117 11.9708h-14.48436c-.13986 0-.27399.0555-.37288.1544-.0989.0989-.15446.233-.15446.3729v5.5652c0 .1399.05556.274.15446.3729.09889.0989.23302.1545.37288.1545h14.48436c.1399 0 .274-.0556.3729-.1545s.1545-.233.1545-.3729v-5.5652c0-.1399-.0556-.274-.1545-.3729s-.233-.1544-.3729-.1544zm-11.13959 3.9529c-.11285 0-.29953 0-.48129.0018v1.0491c0 .1398-.05556.2739-.15446.3728-.09889.0989-.23302.1545-.37288.1545s-.274-.0556-.37289-.1545c-.0989-.0989-.15446-.233-.15446-.3728v-3.6211c0-.0067 0-.0127 0-.0194s0-.0218 0-.0327.00317-.0218.00492-.0327c.00176-.0109 0-.0123.00282-.0182.00246-.0134.00597-.0261.00949-.0387 0-.0039 0-.0078.00281-.0113.00422-.0133.00879-.0263.01406-.0393.00102-.0031.0022-.0062.00352-.0092.00492-.0126.0109-.0246.01687-.0351.00176-.0032.00317-.0071.00493-.0102.00597-.0113.01265-.0215.01933-.032.00246-.0042.00457-.0085.00739-.0127.00281-.0042.01371-.0186.02074-.0278.00703-.0091.00668-.0095.01019-.0137.00809-.0098.01653-.019.02532-.0281.00316-.0032.00562-.0067.00878-.0098.01231-.0123.02497-.0236.03832-.0352l.00704-.0053c.01125-.0088.0225-.0175.03515-.0253l.00739-.0046c.01195-.0077.02425-.0154.03515-.0221l.00457-.0025c.01371-.007.02778-.0137.04219-.0196h.00211c.01512-.006.03058-.0116.0464-.0166h.00282c.01547-.0045.03129-.0088.04711-.0119h.0109c.01335-.0025.02671-.0049.04042-.0064.01753-.0017.03513-.0025.05274-.0024h1.00863c.86555 0 1.56973.695 1.56973 1.5497 0 .8546-.70031 1.5433-1.56586 1.5433zm3.90759 1.5701c-.2928.0053-1.0251.0081-1.0547.0081h-.0021c-.1331-.0002-.2613-.0507-.3587-.1415s-.1569-.2151-.1665-.3479c-.0061-.0318-.0092-.0642-.0091-.0967v-3.5602-.0025c0-.1399.0555-.274.1544-.3729s.233-.1544.3729-.1544h1.0259c.6191 0 1.1573.2636 1.5155.7428.3108.4159.475.9675.475 1.5958-.0014 1.3296-.8219 2.3097-1.9526 2.3294zm4.7683-2.8923c.1398 0 .274.0556.3729.1545s.1544.233.1544.3728c0 .1399-.0555.274-.1544.3729s-.2331.1545-.3729.1545h-.8244v1.3184c0 .1398-.0556.2739-.1545.3728s-.233.1545-.3729.1545-.274-.0556-.3729-.1545-.1544-.233-.1544-.3728v-3.6211c0-.1399.0555-.274.1544-.3729s.233-.1545.3729-.1545h1.4685c.1398 0 .274.0556.3729.1545s.1544.233.1544.3729c0 .1398-.0555.274-.1544.3728-.0989.0989-.2331.1545-.3729.1545h-.9411v.7207z"/><path d="m5.6264 20.7433c.0001.0681.02721.1334.0754.1815.04818.0481.1135.0752.1816.0752h11.7612c.0681 0 .1334-.0271.1816-.0752.0481-.0481.0753-.1134.0754-.1815v-1.0979h-12.2752z"/></g></svg>