<svg fill="none" height="24" viewBox="0 0 24 24" width="24" xmlns="http://www.w3.org/2000/svg"><g fill="#a066aa"><path d="m17.9016 6.57996c-.0005-.06821-.0278-.13351-.076-.18176l-3.3117-3.32367c-.0237-.02373-.0519-.04254-.0829-.05533s-.0643-.01932-.0978-.0192h-8.4498c-.0681 0-.13342.02703-.1816.07515-.04819.04812-.0753.11339-.0754.18149v7.65946h12.2752z"/><path d="m5.6264 20.7433c.0001.0681.02721.1334.0754.1815.04818.0481.1135.0752.1816.0752h11.7612c.0681 0 .1334-.0271.1816-.0752.0481-.0481.0753-.1134.0754-.1815v-1.0979h-12.2752z"/><path d="m19.0117 11.9708h-14.48436c-.13986 0-.27399.0555-.37288.1544-.0989.0989-.15446.233-.15446.3729v5.5652c0 .1399.05556.274.15446.3729.09889.0989.23302.1545.37288.1545h14.48436c.1399 0 .274-.0556.3729-.1545s.1545-.233.1545-.3729v-5.5652c0-.1399-.0556-.274-.1545-.3729s-.233-.1544-.3729-.1544zm-9.66795 5.5311c-.36568 0-.72627-.0857-1.05281-.2503-.32655-.1646-.60995-.4035-.82746-.6974-.21751-.294-.36306-.6348-.42497-.9952s-.03846-.7303.06848-1.08c.10693-.3497.29437-.6695.54727-.9336.25289-.2641.5642-.4653.90892-.5873.34471-.1221.71324-.1616 1.07599-.1154.36273.0462.70963.1769 1.01273.3814.0574.0388.1066.0885.1448.1463.0381.0577.0646.1225.0777.1905.0132.068.0128.1379-.0011.2058-.0138.0678-.0409.1323-.0797.1897s-.0885.1066-.1463.1447c-.0578.0382-.1225.0646-.1905.0778s-.1379.0128-.2058-.0011-.1323-.041-.1897-.0797c-.16649-.1123-.35696-.1839-.55614-.2092s-.40151-.0035-.59075.0636c-.18924.067-.36012.1775-.49893.3226-.1388.1451-.24165.3207-.3003.5127-.05866.192-.07147.3951-.03742.593.03406.1978.11403.385.23349.5463.11947.1614.27511.2925.45442.3828s.3773.1374.57808.1373c.54527 0 .84025-.3378.96435-.7569h-.48517c-.13986 0-.27399-.0556-.37289-.1545s-.15445-.233-.15445-.3728c0-.1399.05555-.274.15445-.3729s.23303-.1545.37289-.1545h1.08387c.1399 0 .274.0556.3729.1545s.1544.233.1544.3729c0 1.377-.8599 2.3389-2.09035 2.3389zm3.90235-.5273c0 .1398-.0556.2739-.1545.3728s-.233.1545-.3729.1545c-.1398 0-.2739-.0556-.3728-.1545s-.1545-.233-.1545-.3728v-3.6211c0-.1399.0556-.274.1545-.3729s.233-.1545.3728-.1545c.1399 0 .274.0556.3729.1545s.1545.233.1545.3729zm2.6367-2.3731c.1399 0 .274.0556.3729.1545s.1545.233.1545.3728c0 .1399-.0556.274-.1545.3729s-.233.1545-.3729.1545h-.8276v1.3184c0 .1398-.0555.2739-.1544.3728s-.2331.1545-.3729.1545c-.1399 0-.274-.0556-.3729-.1545s-.1545-.233-.1545-.3728v-3.6211c0-.1399.0556-.274.1545-.3729s.233-.1545.3729-.1545h1.4685c.1398 0 .274.0556.3729.1545s.1544.233.1544.3729c0 .1398-.0555.274-.1544.3728-.0989.0989-.2331.1545-.3729.1545h-.9412v.7207z"/></g></svg>